<svg width="167" height="45" viewBox="0 0 167 45" fill="none" xmlns="http://www.w3.org/2000/svg">
<path d="M26.4574 20.679C26.4116 15.7685 30.4858 13.359 30.6689 13.2675C28.3495 9.9125 24.7789 9.455 23.4971 9.40925C20.5215 9.07375 17.607 11.1935 16.0811 11.1935C14.5094 11.1935 12.1595 9.4245 9.62643 9.4855C6.37621 9.53125 3.32436 11.4222 1.64584 14.3655C-1.81801 20.313 0.760802 29.1275 4.08732 33.9618C5.73532 36.3255 7.67324 38.9943 10.191 38.8875C12.6783 38.7808 13.6091 37.3015 16.5999 37.3015C19.5602 37.3015 20.4147 38.8722 23.0088 38.8265C25.6792 38.7655 27.3577 36.4323 28.9599 34.038C30.8673 31.3235 31.6455 28.6548 31.6761 28.5175C31.615 28.487 26.4879 26.535 26.4574 20.6485V20.679ZM21.5744 6.222C22.902 4.5445 23.8175 2.30275 23.5581 0C21.6355 0.07625 19.2245 1.32675 17.8359 2.9585C16.6152 4.392 15.5012 6.771 15.7912 8.967C17.958 9.1195 20.1858 7.869 21.5897 6.222H21.5744ZM62.3319 38.552H58.8681L56.9759 32.6045H50.3687L48.5681 38.552H45.211L51.7267 18.2695H55.7552L62.3167 38.552H62.3319ZM56.3808 30.0883L54.7023 24.7965C54.5039 24.2475 54.1682 22.9665 53.6646 20.984H53.6036C53.4052 21.838 53.0848 23.119 52.6423 24.7965L50.9332 30.0883H56.3961H56.3808ZM79.1476 31.0795C79.1476 33.55 78.4762 35.502 77.1334 36.966C75.9127 38.247 74.4325 38.8875 72.6472 38.8875C70.7092 38.8875 69.3359 38.2013 68.4814 36.8135H68.4204V44.5148H65.1701V28.7615C65.1701 27.1908 65.1244 25.5895 65.0481 23.9425H67.9168L68.0999 26.2758H68.1609C69.2291 24.522 70.9076 23.6528 73.0897 23.6528C74.814 23.6528 76.2484 24.3542 77.4081 25.7115C78.5525 27.084 79.1324 28.8835 79.1324 31.11L79.1476 31.0795ZM75.8364 31.1863C75.8364 29.7528 75.5006 28.5938 74.8598 27.6788C74.1578 26.6875 73.2118 26.2148 72.0215 26.2148C71.2281 26.2148 70.4956 26.4893 69.8395 27.023C69.1833 27.5568 68.7713 28.243 68.5577 29.1122C68.4661 29.524 68.4051 29.8442 68.4051 30.1035V32.5435C68.4051 33.611 68.7408 34.526 69.3969 35.2428C70.0378 35.9748 70.8924 36.3407 71.93 36.3407C73.1507 36.3407 74.1121 35.8832 74.7987 34.9377C75.4854 33.9922 75.8211 32.7418 75.8211 31.2015L75.8364 31.1863ZM95.9938 31.0795C95.9938 33.55 95.3224 35.502 93.9644 36.966C92.7741 38.247 91.2635 38.8875 89.4781 38.8875C87.5555 38.8875 86.1669 38.2013 85.3276 36.8135H85.2818V44.5148H82.0316V28.7615C82.0316 27.1908 81.9858 25.5895 81.9095 23.9425H84.763L84.9461 26.2758H85.0072C86.0753 24.522 87.7233 23.6528 89.9359 23.6528C91.6602 23.6528 93.1098 24.3542 94.2543 25.7115C95.414 27.084 95.9938 28.8835 95.9938 31.11V31.0795ZM92.6826 31.1863C92.6826 29.7528 92.3774 28.5938 91.706 27.6788C90.9888 26.6875 90.058 26.2148 88.8678 26.2148C88.059 26.2148 87.3418 26.4893 86.6857 27.023C86.0448 27.5568 85.6175 28.243 85.4192 29.1122C85.3123 29.524 85.2666 29.8442 85.2666 30.1035V32.5435C85.2666 33.611 85.5718 34.526 86.2432 35.2428C86.9146 35.9748 87.7691 36.3407 88.8067 36.3407C90.0275 36.3407 90.9888 35.8832 91.6755 34.9377C92.3469 33.9922 92.6978 32.7418 92.6978 31.2015L92.6826 31.1863ZM114.824 32.8638C114.824 34.587 114.213 35.99 113.023 37.088C111.696 38.2623 109.849 38.857 107.484 38.857C105.302 38.857 103.547 38.4453 102.22 37.5913L102.983 34.8768C104.402 35.7308 105.973 36.1577 107.682 36.1577C108.903 36.1577 109.864 35.8833 110.551 35.3343C111.223 34.7852 111.574 34.038 111.574 33.123C111.574 32.2995 111.299 31.598 110.734 31.0338C110.185 30.4695 109.239 29.9663 107.942 29.463C104.386 28.1363 102.601 26.1995 102.601 23.668C102.601 21.9905 103.211 20.618 104.478 19.5505C105.699 18.483 107.377 17.9493 109.452 17.9493C111.314 17.9493 112.84 18.2543 114.076 18.91L113.237 21.5788C112.077 20.9688 110.795 20.6638 109.346 20.6638C108.201 20.6638 107.301 20.923 106.66 21.4872C106.095 22.0058 105.836 22.6158 105.836 23.3478C105.836 24.1408 106.141 24.8118 106.752 25.3302C107.301 25.8183 108.278 26.3368 109.712 26.901C111.467 27.6025 112.764 28.426 113.572 29.3715C114.396 30.2865 114.793 31.476 114.793 32.879L114.824 32.8638ZM125.597 26.352H121.996V33.4738C121.996 35.2733 122.606 36.173 123.888 36.173C124.468 36.173 124.956 36.1273 125.337 36.0205L125.429 38.491C124.773 38.735 123.934 38.857 122.881 38.857C121.599 38.857 120.592 38.4605 119.859 37.6828C119.142 36.9202 118.791 35.5783 118.791 33.7178V26.3673H116.655V23.9272H118.791V21.2585L121.996 20.2978V23.9578H125.566V26.3978L125.597 26.352ZM141.772 31.1252C141.772 33.367 141.115 35.2122 139.834 36.661C138.46 38.1403 136.69 38.8875 134.462 38.8875C132.326 38.8875 130.617 38.1707 129.351 36.7525C128.069 35.3343 127.428 33.55 127.428 31.3693C127.428 29.0818 128.069 27.2213 129.412 25.7725C130.709 24.339 132.463 23.607 134.707 23.607C136.843 23.607 138.582 24.339 139.895 25.742C141.115 27.145 141.756 28.9445 141.756 31.1252H141.772ZM138.384 31.232C138.384 29.8595 138.079 28.7158 137.514 27.755C136.843 26.5808 135.866 26.0013 134.615 26.0013C133.303 26.0013 132.296 26.5808 131.624 27.755C131.014 28.7158 130.754 29.89 130.754 31.293C130.754 32.635 131.029 33.794 131.624 34.7547C132.326 35.9443 133.303 36.5238 134.569 36.5238C135.82 36.5238 136.797 35.9137 137.499 34.7395C138.079 33.7482 138.384 32.574 138.384 31.232ZM152.331 26.779C152.026 26.718 151.66 26.6875 151.309 26.6875C150.164 26.6875 149.279 27.145 148.654 27.9837C148.135 28.7463 147.86 29.7222 147.86 30.8813V38.552H144.61L144.64 28.5328C144.64 26.8553 144.595 25.3302 144.518 23.9272H147.326L147.448 26.7485H147.54C147.891 25.7725 148.425 25.01 149.172 24.4153C149.89 23.8967 150.668 23.6528 151.522 23.6528C151.827 23.6528 152.072 23.6528 152.316 23.6985V26.7943L152.331 26.779ZM166.888 30.5457C166.888 31.1252 166.843 31.6132 166.766 32.025H157C157.046 33.4738 157.519 34.5718 158.419 35.3343C159.259 36.0052 160.327 36.3407 161.624 36.3407C163.074 36.3407 164.371 36.112 165.591 35.6545L166.08 37.942C164.706 38.5215 163.058 38.8265 161.197 38.8265C158.908 38.8265 157.122 38.1555 155.825 36.844C154.528 35.4715 153.887 33.7025 153.887 31.4608C153.887 29.2495 154.498 27.4042 155.688 25.9403C156.97 24.3848 158.679 23.5918 160.83 23.5918C162.936 23.5918 164.538 24.3542 165.622 25.925C166.492 27.1755 166.934 28.7005 166.934 30.5305L166.888 30.5457ZM163.775 29.707C163.806 28.7463 163.592 27.9075 163.165 27.206C162.585 26.291 161.715 25.8335 160.571 25.8335C159.503 25.8335 158.633 26.291 157.977 27.1755C157.428 27.877 157.107 28.7005 157 29.707H163.775ZM55.3279 5.7645C55.3279 7.5945 54.7938 8.92125 53.7104 9.83625C52.7033 10.675 51.2689 11.0868 49.4378 11.0868C48.5223 11.0868 47.7593 11.0258 47.1184 10.9343V1.1895C47.9577 1.037 48.8732 0.99125 49.8651 0.99125C51.6199 0.99125 52.9169 1.3725 53.8325 2.11975C54.8091 2.97375 55.3127 4.19375 55.3127 5.77975L55.3279 5.7645ZM53.6494 5.8255C53.6494 4.6665 53.3442 3.76675 52.7338 3.1415C52.0929 2.5315 51.2079 2.2265 50.0177 2.2265C49.5141 2.2265 49.1021 2.2265 48.7207 2.318V9.7905C48.919 9.7905 49.2852 9.821 49.7888 9.821C51.0095 9.821 51.9709 9.47025 52.6423 8.79925C53.2832 8.09775 53.6189 7.12175 53.6189 5.81025L53.6494 5.8255ZM64.2546 7.3505C64.2546 8.4485 63.9494 9.3635 63.339 10.065C62.6524 10.797 61.7826 11.163 60.6839 11.163C59.6158 11.163 58.7918 10.8123 58.1661 10.0955C57.5558 9.40925 57.2506 8.52475 57.2506 7.45725C57.2506 6.35925 57.5558 5.47475 58.2119 4.74275C58.8528 4.04125 59.7378 3.67525 60.806 3.67525C61.8741 3.67525 62.7287 4.026 63.3695 4.74275C63.9799 5.41375 64.2851 6.26775 64.2851 7.36575L64.2546 7.3505ZM62.6066 7.39625C62.6066 6.7405 62.454 6.17625 62.1793 5.68825C61.8436 5.124 61.3706 4.83425 60.7449 4.83425C60.1041 4.83425 59.6158 5.10875 59.2801 5.673C58.9749 6.1305 58.8528 6.7405 58.8528 7.4115C58.8528 8.052 59.0054 8.6315 59.2801 9.089C59.631 9.6685 60.1041 9.95825 60.7297 9.95825C61.3401 9.95825 61.7978 9.65325 62.1488 9.089C62.454 8.601 62.6066 8.0215 62.6066 7.36575V7.39625ZM76.2636 3.8125L74.0052 10.98H72.5251L71.6095 7.88425C71.3501 7.076 71.1518 6.3135 70.9992 5.53575C70.8466 6.32875 70.6482 7.1065 70.3888 7.869L69.4122 10.9648H67.9168L65.811 3.79725H67.459L68.283 7.198C68.4814 8.00625 68.6492 8.76875 68.7866 9.4855C68.9392 8.906 69.1223 8.1435 69.3969 7.198L70.4193 3.782H71.7316L72.7082 7.137C72.9371 7.9605 73.1355 8.7535 73.2881 9.50075H73.3186C73.4254 8.76875 73.5932 7.97575 73.8069 7.137L74.6919 3.782H76.2484L76.2636 3.8125ZM84.5494 10.9953H82.9472V6.87775C82.9472 5.612 82.4589 4.98675 81.4975 4.98675C81.0398 4.98675 80.643 5.13925 80.3378 5.49C80.0327 5.84075 79.8801 6.2525 79.8801 6.71V10.98H78.2931V5.856C78.2931 5.2155 78.2931 4.52925 78.2473 3.79725H79.6664L79.7275 4.9105H79.7732C79.9564 4.575 80.231 4.3005 80.5972 4.0565C81.055 3.7515 81.5128 3.6295 82.0621 3.6295C82.7335 3.6295 83.2829 3.843 83.7406 4.28525C84.29 4.819 84.5647 5.612 84.5647 6.66425V10.98L84.5494 10.9953ZM88.9746 10.9953H87.3571V0.5185H88.9593L88.9746 10.9953ZM98.3743 7.3505C98.3743 8.4485 98.0691 9.3635 97.4282 10.065C96.7568 10.797 95.9023 11.163 94.7884 11.163C93.7507 11.163 92.9115 10.8123 92.2858 10.0955C91.6755 9.40925 91.3398 8.52475 91.3398 7.45725C91.3398 6.35925 91.645 5.47475 92.3164 4.74275C92.9572 4.04125 93.8423 3.67525 94.9104 3.67525C95.9786 3.67525 96.8178 4.026 97.474 4.74275C98.0844 5.41375 98.3895 6.26775 98.3895 7.36575L98.3743 7.3505ZM96.6958 7.39625C96.6958 6.7405 96.5737 6.17625 96.2838 5.68825C95.9328 5.124 95.4598 4.83425 94.8341 4.83425C94.1932 4.83425 93.7049 5.10875 93.3692 5.673C93.0641 6.1305 92.9115 6.7405 92.9115 7.4115C92.9115 8.052 93.0641 8.6315 93.3692 9.089C93.7049 9.6685 94.178 9.95825 94.8036 9.95825C95.414 9.95825 95.8718 9.65325 96.238 9.089C96.5432 8.601 96.6958 8.0215 96.6958 7.36575V7.39625ZM106.111 10.9953H104.676L104.524 10.1718H104.493C104.005 10.8123 103.303 11.1477 102.403 11.1477C101.731 11.1477 101.182 10.9343 100.77 10.492C100.388 10.126 100.205 9.62275 100.205 9.04325C100.205 8.174 100.572 7.51825 101.304 7.03025C102.036 6.57275 103.074 6.344 104.417 6.35925V6.20675C104.417 5.26125 103.913 4.7885 102.922 4.7885C102.204 4.7885 101.579 4.9715 101.045 5.32225L100.739 4.25475C101.396 3.85825 102.22 3.64475 103.181 3.64475C105.073 3.64475 106.019 4.636 106.019 6.6185V9.272C106.019 10.004 106.05 10.5835 106.126 10.9953H106.111ZM104.432 8.52475V7.45725C102.693 7.4115 101.808 7.88425 101.808 8.89075C101.808 9.25675 101.914 9.5465 102.113 9.7295C102.326 9.882 102.601 9.98875 102.906 9.98875C103.257 9.98875 103.593 9.882 103.883 9.65325C104.188 9.43975 104.371 9.15 104.447 8.8145V8.5095L104.432 8.52475ZM115.19 10.9953H113.771L113.71 9.8515H113.679C113.222 10.7208 112.459 11.163 111.36 11.163C110.49 11.163 109.773 10.8275 109.224 10.1412C108.613 9.455 108.339 8.58575 108.339 7.48775C108.339 6.32875 108.644 5.38325 109.285 4.6665C109.895 3.9955 110.612 3.66 111.497 3.66C112.459 3.66 113.145 3.965 113.527 4.636H113.557V0.5185H115.159V9.0585C115.159 9.76 115.159 10.4005 115.205 10.9953H115.19ZM113.542 7.97575V6.75575C113.542 6.5575 113.542 6.38975 113.496 6.26775C113.405 5.8865 113.191 5.551 112.916 5.29175C112.611 5.01725 112.245 4.89525 111.848 4.89525C111.238 4.89525 110.78 5.124 110.429 5.59675C110.093 6.05425 109.91 6.66425 109.91 7.42675C109.91 8.12825 110.063 8.70775 110.399 9.15C110.75 9.6075 111.223 9.86675 111.802 9.86675C112.047 9.87401 112.29 9.82237 112.51 9.71621C112.731 9.61005 112.922 9.45246 113.069 9.25675C113.374 8.906 113.527 8.46375 113.527 7.94525L113.542 7.97575ZM128.878 7.3505C128.878 8.4485 128.572 9.3635 127.931 10.065C127.26 10.797 126.406 11.163 125.292 11.163C124.223 11.163 123.399 10.8123 122.774 10.0955C122.163 9.40925 121.828 8.52475 121.828 7.45725C121.828 6.35925 122.133 5.47475 122.804 4.74275C123.445 4.04125 124.33 3.67525 125.398 3.67525C126.467 3.67525 127.321 4.026 127.962 4.74275C128.572 5.41375 128.878 6.26775 128.878 7.36575V7.3505ZM127.199 7.39625C127.199 6.7405 127.077 6.17625 126.787 5.68825C126.451 5.124 125.978 4.83425 125.353 4.83425C124.712 4.83425 124.223 5.10875 123.888 5.673C123.583 6.1305 123.46 6.7405 123.46 7.4115C123.46 8.052 123.613 8.6315 123.888 9.089C124.239 9.6685 124.712 9.95825 125.337 9.95825C125.948 9.95825 126.436 9.65325 126.772 9.089C127.077 8.601 127.23 8.0215 127.23 7.36575L127.199 7.39625ZM137.468 10.9953H135.882V6.87775C135.882 5.612 135.393 4.98675 134.432 4.98675C133.928 4.98675 133.547 5.13925 133.257 5.49C132.952 5.84075 132.799 6.2525 132.799 6.71V10.98H131.243V5.856C131.243 5.2155 131.212 4.52925 131.166 3.79725H132.57L132.647 4.9105H132.692C132.875 4.575 133.15 4.3005 133.516 4.0565C133.944 3.7515 134.432 3.6295 134.951 3.6295C135.622 3.6295 136.171 3.843 136.629 4.28525C137.179 4.819 137.453 5.612 137.453 6.66425V10.98L137.468 10.9953ZM148.242 5.002H146.471V8.5095C146.471 9.394 146.777 9.83625 147.387 9.83625C147.692 9.83625 147.936 9.80575 148.119 9.76L148.165 10.98C147.83 11.0868 147.402 11.1325 146.899 11.1325C146.288 11.1325 145.785 10.9495 145.419 10.5682C145.068 10.187 144.884 9.5465 144.884 8.6315V5.002H143.816L143.847 3.8125H144.884V2.48575L146.456 2.02825V3.782H148.226V4.9715L148.242 5.002ZM156.695 10.9953H155.093V6.90825C155.093 5.62725 154.635 4.9715 153.659 4.9715C152.896 4.9715 152.392 5.35275 152.133 6.1C152.056 6.2525 152.041 6.45075 152.041 6.6795V10.9953H150.439V0.5185H152.026V4.8495H152.056C152.56 4.0565 153.277 3.66 154.193 3.66C154.879 3.66 155.413 3.8735 155.871 4.31575C156.405 4.8495 156.665 5.65775 156.665 6.72525V10.9953H156.695ZM165.423 7.06075C165.423 7.36575 165.423 7.5945 165.378 7.79275H160.586C160.586 8.49425 160.83 9.04325 161.273 9.40925C161.685 9.71425 162.188 9.89725 162.845 9.89725C163.562 9.89725 164.218 9.7905 164.798 9.56175L165.042 10.675C164.371 10.98 163.562 11.1325 162.631 11.1325C161.517 11.1325 160.647 10.797 160.006 10.1412C159.366 9.4855 159.06 8.61625 159.06 7.48775C159.06 6.42025 159.366 5.50525 159.945 4.7885C160.556 4.026 161.395 3.6295 162.463 3.6295C163.486 3.6295 164.294 4.04125 164.813 4.80375C165.225 5.41375 165.423 6.17625 165.423 7.06075ZM163.898 6.649C163.928 6.1915 163.821 5.7645 163.592 5.429C163.318 4.9715 162.906 4.758 162.326 4.758C161.807 4.758 161.38 4.9715 161.059 5.41375C160.785 5.74925 160.632 6.17625 160.602 6.63375H163.913L163.898 6.649Z" fill="white"/>
</svg>
